<?xml version="1.0" encoding="UTF-8"?>
<svg id="Capa_2" data-name="Capa 2" xmlns="http://www.w3.org/2000/svg" viewBox="0 0 837.83 836.53">
  <defs>
    <style>
      .cls-1 {
        fill: #1d71b3;
      }

      .cls-2 {
        fill: #399d93;
      }
    </style>
  </defs>
  <g id="Capa_2-2" data-name="Capa 2">
    <g>
      <path class="cls-1" d="M614.39,48.9l-110.27,110.27c-27.79-9.5-57.58-14.67-88.6-14.67-151.07,0-273.53,122.46-273.53,273.53,0,26.06,3.64,51.26,10.46,75.13l24.75-7.07,173.32-49.5-150.22,150.22-101.32,101.32c-19.18-22.65-36.01-47.35-50.06-73.76-13.82-25.88-24.98-53.39-33.15-82.18C5.49,495.9,0,457.6,0,418,0,187.16,187.16,0,418.03,0c70.97,0,137.83,17.71,196.36,48.9Z"/>
      <path class="cls-2" d="M837.83,418.5c0,230.87-187.13,418.03-418,418.03-72.3,0-140.31-18.36-199.62-50.66l108.51-108.51c27.79,9.5,57.58,14.67,88.6,14.67,151.05,0,273.53-122.46,273.53-273.5,0-26.06-3.64-51.29-10.46-75.16l-24.78,7.1-173.29,49.48,150.22-150.22,104-104c19.36,22.42,36.36,46.95,50.63,73.15,14.39,26.46,26.03,54.62,34.51,84.14,10.51,36.69,16.15,75.44,16.15,115.49Z"/>
      <path class="cls-1" d="M352.04,74.24c3.22,0,3.22-5,0-5s-3.22,5,0,5h0Z"/>
    </g>
  </g>
</svg>